<svg width="203" height="120" viewBox="0 0 203 120" fill="none" xmlns="http://www.w3.org/2000/svg">
<path d="M34.624 44.8C33.8987 42.88 33.216 41.0027 32.576 39.168C31.936 37.2907 31.2747 35.392 30.592 33.472H10.496L6.464 44.8H0C1.7067 40.1067 3.3067 35.776 4.8 31.808C6.2933 27.7973 7.744 24 9.152 20.416C10.6027 16.832 12.032 13.4187 13.44 10.176C14.848 6.8907 16.32 3.648 17.856 0.448H23.552C25.088 3.648 26.56 6.8907 27.968 10.176C29.376 13.4187 30.784 16.832 32.192 20.416C33.6427 24 35.1147 27.7973 36.608 31.808C38.1013 35.776 39.7013 40.1067 41.408 44.8H34.624ZM28.8 28.352C27.4347 24.64 26.0693 21.056 24.704 17.6C23.3813 14.1013 21.9947 10.752 20.544 7.552C19.0507 10.752 17.6213 14.1013 16.256 17.6C14.9333 21.056 13.6107 24.64 12.288 28.352H28.8ZM74.1175 39.424V44.8H47.4295V0.448H53.6375V39.424H74.1175ZM96.004 45.76C93.103 45.76 90.585 45.312 88.452 44.416C86.319 43.52 84.569 42.304 83.204 40.768C81.839 39.1893 80.815 37.3333 80.132 35.2C79.492 33.0667 79.172 30.7627 79.172 28.288V0.448H85.38V27.584C85.38 32.0213 86.361 35.2427 88.324 37.248C90.287 39.2533 92.847 40.256 96.004 40.256C97.583 40.256 99.012 40.0213 100.292 39.552C101.615 39.04 102.745 38.272 103.684 37.248C104.623 36.224 105.348 34.9227 105.86 33.344C106.372 31.7227 106.628 29.8027 106.628 27.584V0.448H112.836V28.288C112.836 30.7627 112.495 33.0667 111.812 35.2C111.172 37.3333 110.148 39.1893 108.74 40.768C107.375 42.304 105.625 43.52 103.492 44.416C101.401 45.312 98.905 45.76 96.004 45.76ZM145.251 26.24C145.933 27.0933 146.787 28.224 147.811 29.632C148.877 30.9973 149.965 32.5333 151.075 34.24C152.184 35.904 153.272 37.6533 154.339 39.488C155.448 41.3227 156.387 43.0933 157.155 44.8H150.37C149.517 43.1787 148.579 41.536 147.555 39.872C146.573 38.208 145.571 36.6293 144.547 35.136C143.523 33.6 142.499 32.1707 141.475 30.848C140.493 29.5253 139.597 28.3733 138.787 27.392C138.232 27.4347 137.656 27.456 137.059 27.456C136.504 27.456 135.928 27.456 135.331 27.456H129.763V44.8H123.555V1.088C125.304 0.661299 127.245 0.383999 129.379 0.255999C131.555 0.0852986 133.539 0 135.331 0C141.56 0 146.296 1.1733 149.539 3.52C152.824 5.8667 154.467 9.3653 154.467 14.016C154.467 16.96 153.677 19.4773 152.099 21.568C150.563 23.6587 148.28 25.216 145.251 26.24ZM135.843 5.44C133.197 5.44 131.171 5.504 129.763 5.632V22.336H134.179C136.312 22.336 138.232 22.2293 139.939 22.016C141.645 21.8027 143.075 21.3973 144.227 20.8C145.421 20.2027 146.339 19.3707 146.979 18.304C147.619 17.1947 147.939 15.744 147.939 13.952C147.939 12.288 147.619 10.9013 146.979 9.792C146.339 8.6827 145.464 7.808 144.355 7.168C143.288 6.528 142.008 6.08 140.515 5.824C139.064 5.568 137.507 5.44 135.843 5.44ZM195.249 44.8C194.524 42.88 193.841 41.0027 193.201 39.168C192.561 37.2907 191.9 35.392 191.217 33.472H171.121L167.089 44.8H160.625C162.332 40.1067 163.932 35.776 165.425 31.808C166.918 27.7973 168.369 24 169.777 20.416C171.228 16.832 172.657 13.4187 174.065 10.176C175.473 6.8907 176.945 3.648 178.481 0.448H184.177C185.713 3.648 187.185 6.8907 188.593 10.176C190.001 13.4187 191.409 16.832 192.817 20.416C194.268 24 195.74 27.7973 197.233 31.808C198.726 35.776 200.326 40.1067 202.033 44.8H195.249ZM189.425 28.352C188.06 24.64 186.694 21.056 185.329 17.6C184.006 14.1013 182.62 10.752 181.169 7.552C179.676 10.752 178.246 14.1013 176.881 17.6C175.558 21.056 174.236 24.64 172.913 28.352H189.425ZM15.296 114.384C21.7813 114.384 25.024 112.165 25.024 107.728C25.024 106.363 24.7253 105.211 24.128 104.272C23.5733 103.291 22.8053 102.459 21.824 101.776C20.8427 101.051 19.712 100.432 18.432 99.92C17.1947 99.408 15.872 98.896 14.464 98.384C12.8427 97.829 11.3067 97.211 9.856 96.528C8.4053 95.803 7.1467 94.971 6.08 94.032C5.0133 93.051 4.16 91.899 3.52 90.576C2.9227 89.253 2.624 87.653 2.624 85.776C2.624 81.893 3.9467 78.864 6.592 76.688C9.2373 74.512 12.8853 73.424 17.536 73.424C20.224 73.424 22.656 73.7227 24.832 74.32C27.0507 74.875 28.672 75.493 29.696 76.176L27.712 81.232C26.816 80.677 25.472 80.144 23.68 79.632C21.9307 79.077 19.8827 78.8 17.536 78.8C16.3413 78.8 15.232 78.928 14.208 79.184C13.184 79.44 12.288 79.824 11.52 80.336C10.752 80.848 10.1333 81.509 9.664 82.32C9.2373 83.088 9.024 84.005 9.024 85.072C9.024 86.267 9.2587 87.269 9.728 88.08C10.1973 88.891 10.8587 89.616 11.712 90.256C12.5653 90.853 13.5467 91.408 14.656 91.92C15.808 92.432 17.0667 92.944 18.432 93.456C20.352 94.224 22.1013 94.992 23.68 95.76C25.3013 96.528 26.688 97.445 27.84 98.512C29.0347 99.579 29.952 100.859 30.592 102.352C31.232 103.803 31.552 105.573 31.552 107.664C31.552 111.547 30.1227 114.533 27.264 116.624C24.448 118.715 20.4587 119.76 15.296 119.76C13.5467 119.76 11.9253 119.632 10.432 119.376C8.9813 119.163 7.68 118.907 6.528 118.608C5.376 118.267 4.3733 117.925 3.52 117.584C2.7093 117.2 2.0693 116.88 1.6 116.624L3.456 111.504C4.4373 112.059 5.9307 112.677 7.936 113.36C9.9413 114.043 12.3947 114.384 15.296 114.384ZM68.6865 74.448V79.824H54.7345V118.8H48.5265V79.824H34.5745V74.448H68.6865ZM71.7 96.592C71.7 92.795 72.2547 89.445 73.364 86.544C74.516 83.643 76.052 81.232 77.972 79.312C79.935 77.349 82.196 75.877 84.756 74.896C87.359 73.915 90.111 73.424 93.012 73.424C95.871 73.424 98.559 73.915 101.076 74.896C103.636 75.877 105.876 77.349 107.796 79.312C109.716 81.232 111.231 83.643 112.34 86.544C113.492 89.445 114.068 92.795 114.068 96.592C114.068 100.389 113.492 103.739 112.34 106.64C111.231 109.541 109.716 111.973 107.796 113.936C105.876 115.856 103.636 117.307 101.076 118.288C98.559 119.269 95.871 119.76 93.012 119.76C90.111 119.76 87.359 119.269 84.756 118.288C82.196 117.307 79.935 115.856 77.972 113.936C76.052 111.973 74.516 109.541 73.364 106.64C72.2547 103.739 71.7 100.389 71.7 96.592ZM78.228 96.592C78.228 99.28 78.5693 101.733 79.252 103.952C79.935 106.128 80.895 107.984 82.132 109.52C83.412 111.056 84.948 112.251 86.74 113.104C88.575 113.915 90.623 114.32 92.884 114.32C95.145 114.32 97.172 113.915 98.964 113.104C100.756 112.251 102.271 111.056 103.508 109.52C104.788 107.984 105.769 106.128 106.452 103.952C107.135 101.733 107.476 99.28 107.476 96.592C107.476 93.904 107.135 91.472 106.452 89.296C105.769 87.077 104.788 85.2 103.508 83.664C102.271 82.128 100.756 80.955 98.964 80.144C97.172 79.291 95.145 78.864 92.884 78.864C90.623 78.864 88.575 79.291 86.74 80.144C84.948 80.955 83.412 82.128 82.132 83.664C80.895 85.2 79.935 87.077 79.252 89.296C78.5693 91.472 78.228 93.904 78.228 96.592ZM145.001 100.24C145.683 101.093 146.537 102.224 147.561 103.632C148.627 104.997 149.715 106.533 150.825 108.24C151.934 109.904 153.022 111.653 154.089 113.488C155.198 115.323 156.137 117.093 156.905 118.8H150.12C149.267 117.179 148.329 115.536 147.305 113.872C146.323 112.208 145.321 110.629 144.297 109.136C143.273 107.6 142.249 106.171 141.225 104.848C140.243 103.525 139.347 102.373 138.537 101.392C137.982 101.435 137.406 101.456 136.809 101.456C136.254 101.456 135.678 101.456 135.081 101.456H129.513V118.8H123.305V75.088C125.054 74.661 126.995 74.384 129.129 74.256C131.305 74.085 133.289 74 135.081 74C141.31 74 146.046 75.173 149.289 77.52C152.574 79.867 154.217 83.365 154.217 88.016C154.217 90.96 153.427 93.477 151.849 95.568C150.313 97.659 148.03 99.216 145.001 100.24ZM135.593 79.44C132.947 79.44 130.921 79.504 129.513 79.632V96.336H133.929C136.062 96.336 137.982 96.229 139.689 96.016C141.395 95.803 142.825 95.397 143.977 94.8C145.171 94.203 146.089 93.371 146.729 92.304C147.369 91.195 147.689 89.744 147.689 87.952C147.689 86.288 147.369 84.901 146.729 83.792C146.089 82.683 145.214 81.808 144.105 81.168C143.038 80.528 141.758 80.08 140.265 79.824C138.814 79.568 137.257 79.44 135.593 79.44ZM163.555 118.8V74.448H190.627V79.76H169.763V92.944H188.323V98.128H169.763V113.488H192.227V118.8H163.555Z" fill="white"/>
</svg>
